HIERARCHY
ROOT Hips
{
 OFFSET 0.000000 0.000000 0.000000
 CHANNELS 6 Xposition Yposition Zposition Yrotation Xrotation Zrotation
 JOINT Chest
 {
  OFFSET 0.000000 9.585900 0.002600
  CHANNELS 3 Yrotation Xrotation Zrotation
  JOINT Chest2
  {
   OFFSET 0.000000 9.601200 -0.005300
   CHANNELS 3 Yrotation Xrotation Zrotation
   JOINT Chest3
   {
    OFFSET 0.000000 9.561800 0.000000
    CHANNELS 3 Yrotation Xrotation Zrotation
    JOINT Chest4
    {
     OFFSET 0.000000 9.552100 0.000000
     CHANNELS 3 Yrotation Xrotation Zrotation
     JOINT Neck
     {
      OFFSET 0.000000 14.453000 0.000000
      CHANNELS 3 Yrotation Xrotation Zrotation
      JOINT Head
      {
       OFFSET 0.000000 8.936500 -0.011300
       CHANNELS 3 Yrotation Xrotation Zrotation
       End Site
       {
        OFFSET 0.000000 17.073600 -0.006000
       }
      }
     }
     JOINT RightCollar
     {
      OFFSET -2.921100 9.558500 0.000000
      CHANNELS 3 Yrotation Xrotation Zrotation
      JOINT RightShoulder
      {
       OFFSET -13.519700 0.000000 0.000000
       CHANNELS 3 Yrotation Xrotation Zrotation
       JOINT RightElbow
       {
        OFFSET 0.000000 -29.696600 0.000000
        CHANNELS 3 Yrotation Xrotation Zrotation
        JOINT RightWrist
        {
         OFFSET 0.000000 -24.004700 0.000000
         CHANNELS 3 Yrotation Xrotation Zrotation
         End Site
         {
          OFFSET 0.000000 -17.728500 0.000000
         }
        }
       }
      }
     }
     JOINT LeftCollar
     {
      OFFSET 2.921100 9.558500 0.000000
      CHANNELS 3 Yrotation Xrotation Zrotation
      JOINT LeftShoulder
      {
       OFFSET 13.519700 0.000000 0.000000
       CHANNELS 3 Yrotation Xrotation Zrotation
       JOINT LeftElbow
       {
        OFFSET 0.000000 -29.696600 0.000000
        CHANNELS 3 Yrotation Xrotation Zrotation
        JOINT LeftWrist
        {
         OFFSET 0.000000 -24.004700 0.000000
         CHANNELS 3 Yrotation Xrotation Zrotation
         End Site
         {
          OFFSET 0.000000 -17.728500 0.000000
         }
        }
       }
      }
     }
    }
   }
  }
 }
 JOINT RightHip
 {
  OFFSET -7.771700 -0.012900 -0.001300
  CHANNELS 3 Yrotation Xrotation Zrotation
  JOINT RightKnee
  {
   OFFSET 0.000000 -40.869800 0.001200
   CHANNELS 3 Yrotation Xrotation Zrotation
   JOINT RightAnkle
   {
    OFFSET 0.000000 -39.717900 0.002100
    CHANNELS 3 Yrotation Xrotation Zrotation
    JOINT RightToe
    {
     OFFSET 0.000000 -4.965400 11.033500
     CHANNELS 3 Yrotation Xrotation Zrotation
     End Site
     {
      OFFSET 0.000000 -1.423100 5.872300
     }
    }
   }
  }
 }
 JOINT LeftHip
 {
  OFFSET 7.771700 -0.012900 -0.001300
  CHANNELS 3 Yrotation Xrotation Zrotation
  JOINT LeftKnee
  {
   OFFSET 0.000000 -40.869800 0.001200
   CHANNELS 3 Yrotation Xrotation Zrotation
   JOINT LeftAnkle
   {
    OFFSET 0.000000 -39.717900 0.002100
    CHANNELS 3 Yrotation Xrotation Zrotation
    JOINT LeftToe
    {
     OFFSET 0.000000 -4.965400 11.033500
     CHANNELS 3 Yrotation Xrotation Zrotation
     End Site
     {
      OFFSET 0.000000 -1.423100 5.872300
     }
    }
   }
  }
 }
}
MOTION
Frames: 13
Frame Time: 0.008333
0.000000 85.388000 0.000000 0.000000 -5.767877 0.000000 0.000000 11.653817 0.000000 0.000000 -5.885947 0.000000 0.000000 -0.000000 0.000000 0.000000 -0.000000 0.000000 0.000000 12.528835 0.000000 0.000000 0.711642 0.000000 0.000000 -0.000000 0.000000 0.000000 0.000000 -90.000000 0.000000 -2.309062 0.000000 0.000000 2.309062 0.000000 0.000000 -0.000000 0.000000 0.000000 -0.000000 90.000000 0.000000 -2.309062 0.000000 0.000000 2.309062 0.000000 0.000000 8.520406 0.000000 0.000000 1.905762 0.000000 -0.000000 -4.658285 0.000000 0.000000 -0.000000 0.000000 0.000000 8.520406 0.000000 0.000000 1.905762 0.000000 -0.000000 -4.658285 0.000000 0.000000 -0.000000 0.000000
-29.171080 46.629106 22.881761 176.786206 -29.851638 -2.956898 -0.466242 17.904705 1.202526 -0.087581 1.978163 0.172242 -0.145670 3.284995 0.285038 -0.557169 15.659326 1.311152 -0.860841 16.256587 -0.872217 -1.462594 -5.672069 -1.216726 0.243194 0.452312 -2.544316 6.524561 -6.441101 -15.206486 -55.589222 -63.796128 104.162709 -0.950405 2.012886 -17.725725 -0.485323 -0.806344 2.393088 -4.911383 -2.595898 14.341514 88.751224 -75.005804 -127.156066 -2.694234 6.839225 3.509691 -0.953262 -57.537090 -10.232685 -161.204590 81.121263 -152.674295 -5.488112 -11.200068 -5.570868 0.034439 -0.292966 0.003902 -1.753463 -58.749724 10.956146 -112.448705 80.343030 -116.597438 6.139766 -7.725641 5.484016 0.079496 0.349717 0.030977
-29.165033 46.630236 22.882083 176.808072 -29.874039 -2.981869 -0.466194 17.917539 1.218219 -0.086631 1.978102 0.172053 -0.140586 3.281864 0.284068 -0.555966 15.660812 1.314142 -0.919267 16.239163 -0.848313 -1.624982 -5.717694 -1.130277 0.230109 0.462859 -2.536903 6.538089 -6.454246 -15.220095 -55.599840 -63.797789 104.170108 -0.953535 1.998646 -17.729247 -0.496025 -0.799254 2.393905 -4.906125 -2.608987 14.335442 88.723813 -75.012297 -127.137162 -2.702784 6.820827 3.518816 -0.992939 -57.512769 -10.205157 -161.151673 81.117625 -152.618372 -5.460224 -11.214665 -5.575150 0.028656 -0.273983 0.004374 -1.790425 -58.727844 10.976085 -112.441576 80.334498 -116.585367 6.181382 -7.690864 5.488172 0.056483 0.311393 0.020257
-29.160306 46.630029 22.885310 176.804447 -29.881142 -2.980634 -0.455887 17.919626 1.219215 -0.086063 1.977993 0.171887 -0.132643 3.275366 0.281779 -0.522987 15.648983 1.305708 -1.071432 16.197852 -0.787202 -1.765242 -5.744013 -1.056507 0.203034 0.479798 -2.514941 6.528606 -6.456871 -15.222864 -55.610852 -63.805903 104.181839 -0.920523 1.974683 -17.715538 -0.525302 -0.785115 2.406951 -4.919397 -2.606912 14.343598 88.743690 -75.010321 -127.153108 -2.712608 6.774482 3.561517 -1.001957 -57.507077 -10.189147 -161.090319 81.119034 -152.551816 -5.466048 -11.207936 -5.590611 0.042025 -0.273807 0.011256 -1.785755 -58.722018 10.973925 -112.428935 80.329908 -116.569806 6.199192 -7.692465 5.491431 0.045867 0.312871 0.013800
-29.153231 46.630422 22.888934 176.802275 -29.890672 -2.987531 -0.444765 17.924753 1.227921 -0.085374 1.977735 0.171619 -0.124721 3.263919 0.280641 -0.524193 15.656585 1.305379 -1.192457 16.146262 -0.745247 -1.972234 -5.787531 -0.946129 0.233076 0.473705 -2.510907 6.494743 -6.450813 -15.226687 -55.612764 -63.799620 104.179896 -0.894593 1.967021 -17.704083 -0.513105 -0.789594 2.396413 -4.937531 -2.612210 14.346998 88.847422 -75.008846 -127.227525 -2.709681 6.788332 3.555012 -1.024727 -57.496834 -10.135216 -160.949109 81.119213 -152.416524 -5.496731 -11.208831 -5.595516 0.058302 -0.266471 0.022867 -1.793816 -58.712767 10.986504 -112.408610 80.324608 -116.547095 6.223934 -7.697176 5.493622 0.029174 0.316271 0.009406
-29.146800 46.631193 22.893201 176.788745 -29.899775 -2.978546 -0.411298 17.906339 1.231922 -0.096900 1.991814 0.170443 -0.119903 3.253564 0.280910 -0.525577 15.668311 1.303798 -1.322582 16.095351 -0.696226 -2.248745 -5.841042 -0.801441 0.238510 0.474605 -2.503896 6.494080 -6.463026 -15.242160 -55.616308 -63.798512 104.172163 -0.890087 1.965513 -17.692272 -0.515345 -0.784932 2.396046 -4.936370 -2.650054 14.329015 88.765886 -75.027735 -127.144433 -2.706214 6.794634 3.553193 -1.005232 -57.489266 -10.121011 -160.869197 81.121306 -152.332222 -5.518834 -11.205154 -5.603862 0.067737 -0.261301 0.033080 -1.779104 -58.702833 10.983202 -112.387954 80.323463 -116.526291 6.242150 -7.698276 5.494663 0.023442 0.316057 0.007084
-29.140320 46.632705 22.898012 176.785937 -29.908926 -2.969206 -0.400438 17.896127 1.227147 -0.092264 1.992571 0.170086 -0.123137 3.241841 0.280708 -0.514683 15.665702 1.300316 -1.498766 16.053875 -0.630258 -2.587712 -5.894595 -0.628951 0.226284 0.499611 -2.493000 6.503828 -6.476962 -15.257960 -55.620201 -63.798614 104.164050 -0.891846 1.967581 -17.683614 -0.526233 -0.759727 2.398502 -4.945981 -2.655146 14.329174 88.803947 -75.029001 -127.168609 -2.704367 6.800780 3.551868 -0.983177 -57.479741 -10.122781 -160.794387 81.124458 -152.250982 -5.534546 -11.199852 -5.610331 0.075476 -0.257918 0.038800 -1.755797 -58.695212 10.959301 -112.389020 80.324115 -116.520746 6.254256 -7.694349 5.497280 0.007016 0.312776 0.000635
-29.133366 46.635035 22.903640 176.784602 -29.917795 -2.958093 -0.394425 17.882971 1.220040 -0.082260 1.962744 0.169660 -0.133374 3.257571 0.280187 -0.505426 15.658088 1.301591 -1.720529 16.010423 -0.559526 -3.006185 -5.951698 -0.422314 0.211490 0.540418 -2.489303 6.534364 -6.510667 -15.283945 -55.609411 -63.801304 104.125946 -0.921264 1.966748 -17.673094 -0.482221 -0.745089 2.359779 -5.008958 -2.638978 14.361191 88.813330 -75.031070 -127.165452 -2.707491 6.797793 3.564550 -0.962132 -57.470258 -10.134293 -160.744744 81.129224 -152.194028 -5.534306 -11.191896 -5.617685 0.065169 -0.254264 0.034724 -1.735186 -58.686194 10.938391 -112.355332 80.320569 -116.486221 6.272557 -7.689630 5.501124 -0.005813 0.310023 -0.004755
-29.125020 46.638245 22.910588 176.792273 -29.924313 -2.955355 -0.399245 17.878464 1.215479 -0.078020 1.945831 0.170108 -0.134317 3.247961 0.278834 -0.510038 15.638986 1.298814 -1.981251 15.968854 -0.479258 -3.516943 -6.020733 -0.177181 0.223458 0.592353 -2.480345 6.538506 -6.523219 -15.302944 -55.598223 -63.789398 104.099325 -0.923006 1.972071 -17.662195 -0.434440 -0.711402 2.323958 -5.053702 -2.651099 14.385548 88.691611 -75.040286 -127.051627 -2.724297 6.787096 3.617998 -0.950761 -57.459645 -10.123273 -160.558052 81.127855 -152.002979 -5.545185 -11.191919 -5.630068 0.074394 -0.248151 0.046884 -1.722657 -58.678222 10.916444 -112.306652 80.325142 -116.431744 6.297208 -7.681959 5.503357 -0.021310 0.308202 -0.011460
-29.118648 46.641900 22.919360 176.796235 -29.924887 -2.935605 -0.405316 17.868085 1.195975 -0.075761 1.935816 0.168888 -0.133472 3.232585 0.277211 -0.518344 15.560551 1.286782 -2.290020 15.976216 -0.382884 -4.122826 -6.106774 0.106685 0.257501 0.721903 -2.464500 6.526573 -6.552043 -15.326298 -55.600321 -63.772689 104.081236 -0.921747 1.981165 -17.650393 -0.387828 -0.614307 2.298676 -5.086079 -2.677114 14.403925 88.598791 -75.048618 -126.952084 -2.728168 6.796940 3.616423 -0.930226 -57.457570 -10.119900 -160.417933 81.138177 -151.874099 -5.575005 -11.189158 -5.633057 0.084144 -0.238566 0.055320 -1.698346 -58.669482 10.865941 -112.212597 80.334720 -116.337654 6.339369 -7.678645 5.507132 -0.041437 0.311800 -0.024484
-29.108176 46.644985 22.932965 176.808836 -29.902622 -2.943457 -0.406719 17.824662 1.202006 -0.083569 1.950420 0.167721 -0.129829 3.205826 0.275450 -0.529709 15.541634 1.279268 -2.643594 15.916454 -0.280415 -4.818629 -6.205208 0.425621 0.274397 0.796656 -2.460502 6.537194 -6.587148 -15.350537 -55.622183 -63.787795 104.079175 -0.959574 1.979592 -17.641171 -0.333225 -0.572201 2.262966 -5.109231 -2.711198 14.427450 88.526648 -75.054750 -126.878956 -2.731811 6.805900 3.606970 -0.979371 -57.481912 -10.013563 -160.042536 81.143218 -151.534589 -5.645600 -11.177849 -5.634235 0.125651 -0.231499 0.080394 -1.742355 -58.681077 10.884058 -112.042530 80.349930 -116.170644 6.363373 -7.663604 5.500364 -0.070188 0.320088 -0.032079
-29.103293 46.650756 22.944212 176.805202 -29.903126 -2.907597 -0.403944 17.806352 1.170958 -0.084732 1.945118 0.166706 -0.137034 3.213029 0.274260 -0.543573 15.507068 1.270693 -3.037716 15.854328 -0.170061 -5.593417 -6.303440 0.774447 0.293450 0.882201 -2.470772 6.546670 -6.635597 -15.367580 -55.674621 -63.797906 104.108345 -0.996262 1.989257 -17.631413 -0.275386 -0.522149 2.220604 -5.075728 -2.787348 14.429528 88.433218 -75.065773 -126.784417 -2.736646 6.853434 3.528264 -0.927615 -57.480006 -10.029375 -159.858281 81.152971 -151.358442 -5.713280 -11.150533 -5.641222 0.167681 -0.248798 0.101474 -1.724301 -58.667312 10.843406 -111.894572 80.372552 -116.039678 6.384596 -7.686621 5.502045 -0.080187 0.361308 -0.041576
-29.095244 46.657714 22.956980 176.824378 -29.902794 -2.902644 -0.420492 17.788058 1.157504 -0.082302 1.918190 0.165083 -0.143810 3.242067 0.274468 -0.560438 15.474575 1.261167 -3.464621 15.796436 -0.052487 -6.432233 -6.388428 1.148848 0.310821 0.981156 -2.499237 6.548112 -6.695141 -15.354073 -55.758764 -63.848316 104.165863 -1.034536 2.023956 -17.605397 -0.238178 -0.470855 2.201478 -5.056032 -2.819715 14.432265 88.468482 -75.046678 -126.796047 -2.756093 6.892054 3.470844 -0.913071 -57.474581 -10.018451 -159.719199 81.170724 -151.221486 -5.763341 -11.137240 -5.640154 0.183287 -0.246901 0.110869 -1.761398 -58.651133 10.842347 -111.763870 80.394701 -115.930393 6.417483 -7.687119 5.501487 -0.106990 0.372862 -0.048604
